<svg xmlns="http://www.w3.org/2000/svg" xmlns:xlink="http://www.w3.org/1999/xlink" xmlns:lucid="lucid" width="489.5" height="680"><g transform="translate(-149 -60)" lucid:page-tab-id="0_0"><path d="M0 0h1760v1360H0z" fill="#fff"/><path d="M320 80h160v80H320z" stroke="#000" stroke-width="2" fill="#fff"/><use xlink:href="#a" transform="matrix(1,0,0,1,325,85) translate(32.525 38.6)"/><use xlink:href="#b" transform="matrix(1,0,0,1,325,85) translate(79.525 38.6)"/><path d="M320 160h160v40H320z" stroke="#000" stroke-width="2" fill="#c7e8ac"/><use xlink:href="#a" transform="matrix(1,0,0,1,320,160) translate(2.5749999999999886 23.6)"/><use xlink:href="#c" transform="matrix(1,0,0,1,320,160) translate(49.57499999999999 23.6)"/><use xlink:href="#d" transform="matrix(1,0,0,1,320,160) translate(98.52499999999999 23.6)"/><path d="M320 200h160v40H320z" stroke="#000" stroke-width="2" fill="#c1e4f7"/><use xlink:href="#a" transform="matrix(1,0,0,1,320,200) translate(2.5749999999999886 23.6)"/><use xlink:href="#c" transform="matrix(1,0,0,1,320,200) translate(49.57499999999999 23.6)"/><use xlink:href="#d" transform="matrix(1,0,0,1,320,200) translate(98.52499999999999 23.6)"/><path d="M320 240h160v40H320z" stroke="#000" stroke-width="2" fill="#f9d2de"/><use xlink:href="#a" transform="matrix(1,0,0,1,320,240) translate(2.5749999999999886 23.6)"/><use xlink:href="#c" transform="matrix(1,0,0,1,320,240) translate(49.57499999999999 23.6)"/><use xlink:href="#d" transform="matrix(1,0,0,1,320,240) translate(98.52499999999999 23.6)"/><path d="M520 80h80v200h-80z" fill="none"/><path d="M520 280c6.9 0 12.5-5.6 12.5-12.5v-75c0-6.9 5.6-12.5 12.5-12.5-6.9 0-12.5-5.6-12.5-12.5v-75c0-6.9-5.6-12.5-12.5-12.5" stroke="#000" stroke-width="2" fill="none"/><use xlink:href="#e" transform="matrix(1,0,0,1,557.5,80) translate(0 93.30000000000001)"/><use xlink:href="#d" transform="matrix(1,0,0,1,557.5,80) translate(0 114.9)"/><path d="M320 280h160v120H320z" stroke="#000" stroke-width="2" fill="#c7e8ac"/><use xlink:href="#a" transform="matrix(1,0,0,1,320,280) translate(27.025 63.6)"/><use xlink:href="#c" transform="matrix(1,0,0,1,320,280) translate(74.025 63.6)"/><use xlink:href="#f" transform="matrix(1,0,0,1,320,280) translate(122.975 63.6)"/><path d="M320 400h160v80H320z" stroke="#000" stroke-width="2" fill="#c1e4f7"/><use xlink:href="#a" transform="matrix(1,0,0,1,320,400) translate(27.025 43.6)"/><use xlink:href="#c" transform="matrix(1,0,0,1,320,400) translate(74.025 43.6)"/><use xlink:href="#g" transform="matrix(1,0,0,1,320,400) translate(122.975 43.6)"/><path d="M320 480h160v240H320z" stroke="#000" stroke-width="2" fill="#f9d2de"/><use xlink:href="#a" transform="matrix(1,0,0,1,320,480) translate(27.025 123.60000000000001)"/><use xlink:href="#c" transform="matrix(1,0,0,1,320,480) translate(74.025 123.60000000000001)"/><use xlink:href="#h" transform="matrix(1,0,0,1,320,480) translate(122.975 123.60000000000001)"/><g fill-opacity="0"><path d="M300 280v119.67h-30V280z"/><path d="M299.67 280.6h-29.25M299.67 398.7h-29.25M285.06 280.6v118.1" stroke="#000" stroke-width="2"/></g><path d="M320 180H160v158.93h110" stroke="#7ab648" stroke-width="2" fill="none"/><path fill="#7ab648"/><path d="M270 338.93l-14.27 4.64v-9.27z" fill="#7ab648"/><path d="M270 337.88v2.1l-15.27 4.97v-12.03zm-13.27 4.3l10.03-3.25-10.03-3.26z" fill="#7ab648"/><g fill-opacity="0"><path d="M300 400v85h-30v-85z"/><path d="M299.67 400.43h-29.25M299.67 484.32h-29.25M285.06 400.43v83.9" stroke="#000" stroke-width="2"/></g><g fill-opacity="0"><path d="M297.33 481.67V720H270V481.67z"/><path d="M297.03 482.86h-26.65M297.03 718.1h-26.65M283.72 482.86V718.1" stroke="#000" stroke-width="2"/></g><path d="M320 220H200v216.27h70" stroke="#3aa6dd" stroke-width="2" fill="none"/><path fill="#3aa6dd"/><path d="M270 436.27l-14.27 4.63v-9.27z" fill="#3aa6dd"/><path d="M270 435.22v2.1l-15.27 4.96v-12.03zm-13.27 4.3l10.03-3.25-10.03-3.26z" fill="#3aa6dd"/><path d="M320 260h-90v338.93h40" stroke="#de5f85" stroke-width="2" fill="none"/><path fill="#de5f85"/><path d="M270 598.93l-14.27 4.64v-9.27z" fill="#de5f85"/><path d="M270 597.88v2.1l-15.27 4.97v-12.03zm-13.27 4.3l10.03-3.25-10.03-3.26z" fill="#de5f85"/><defs><path d="M185-189c-5-48-123-54-124 2 14 75 158 14 163 119 3 78-121 87-175 55-17-10-28-26-33-46l33-7c5 56 141 63 141-1 0-78-155-14-162-118-5-82 145-84 179-34 5 7 8 16 11 25" id="i"/><path d="M115-194c55 1 70 41 70 98S169 2 115 4C84 4 66-9 55-30l1 105H24l-1-265h31l2 30c10-21 28-34 59-34zm-8 174c40 0 45-34 45-75s-6-73-45-74c-42 0-51 32-51 76 0 43 10 73 51 73" id="j"/><path d="M141-36C126-15 110 5 73 4 37 3 15-17 15-53c-1-64 63-63 125-63 3-35-9-54-41-54-24 1-41 7-42 31l-33-3c5-37 33-52 76-52 45 0 72 20 72 64v82c-1 20 7 32 28 27v20c-31 9-61-2-59-35zM48-53c0 20 12 33 32 33 41-3 63-29 60-74-43 2-92-5-92 41" id="k"/><path d="M117-194c89-4 53 116 60 194h-32v-121c0-31-8-49-39-48C34-167 62-67 57 0H25l-1-190h30c1 10-1 24 2 32 11-22 29-35 61-36" id="l"/><g id="a"><use transform="matrix(0.05,0,0,0.05,0,0)" xlink:href="#i"/><use transform="matrix(0.05,0,0,0.05,12,0)" xlink:href="#j"/><use transform="matrix(0.05,0,0,0.05,22,0)" xlink:href="#k"/><use transform="matrix(0.05,0,0,0.05,32,0)" xlink:href="#l"/></g><path d="M30-248c118-7 216 8 213 122C240-48 200 0 122 0H30v-248zM63-27c89 8 146-16 146-99s-60-101-146-95v194" id="m"/><path d="M59-47c-2 24 18 29 38 22v24C64 9 27 4 27-40v-127H5v-23h24l9-43h21v43h35v23H59v120" id="n"/><g id="b"><use transform="matrix(0.05,0,0,0.05,0,0)" xlink:href="#m"/><use transform="matrix(0.05,0,0,0.05,12.950000000000001,0)" xlink:href="#k"/><use transform="matrix(0.05,0,0,0.05,22.950000000000003,0)" xlink:href="#n"/><use transform="matrix(0.05,0,0,0.05,27.950000000000003,0)" xlink:href="#k"/></g><path d="M160-131c35 5 61 23 61 61C221 17 115-2 30 0v-248c76 3 177-17 177 60 0 33-19 50-47 57zm-97-11c50-1 110 9 110-42 0-47-63-36-110-37v79zm0 115c55-2 124 14 124-45 0-56-70-42-124-44v89" id="o"/><path d="M24 0v-261h32V0H24" id="p"/><path d="M100-194c62-1 85 37 85 99 1 63-27 99-86 99S16-35 15-95c0-66 28-99 85-99zM99-20c44 1 53-31 53-75 0-43-8-75-51-75s-53 32-53 75 10 74 51 75" id="q"/><path d="M96-169c-40 0-48 33-48 73s9 75 48 75c24 0 41-14 43-38l32 2c-6 37-31 61-74 61-59 0-76-41-82-99-10-93 101-131 147-64 4 7 5 14 7 22l-32 3c-4-21-16-35-41-35" id="r"/><path d="M143 0L79-87 56-68V0H24v-261h32v163l83-92h37l-77 82L181 0h-38" id="s"/><g id="c"><use transform="matrix(0.05,0,0,0.05,0,0)" xlink:href="#o"/><use transform="matrix(0.05,0,0,0.05,12,0)" xlink:href="#p"/><use transform="matrix(0.05,0,0,0.05,15.949999999999997,0)" xlink:href="#q"/><use transform="matrix(0.05,0,0,0.05,25.950000000000003,0)" xlink:href="#r"/><use transform="matrix(0.05,0,0,0.05,34.95,0)" xlink:href="#s"/></g><path d="M197 0v-115H63V0H30v-248h33v105h134v-105h34V0h-34" id="t"/><path d="M100-194c63 0 86 42 84 106H49c0 40 14 67 53 68 26 1 43-12 49-29l28 8c-11 28-37 45-77 45C44 4 14-33 15-96c1-61 26-98 85-98zm52 81c6-60-76-77-97-28-3 7-6 17-6 28h103" id="u"/><path d="M85-194c31 0 48 13 60 33l-1-100h32l1 261h-30c-2-10 0-23-3-31C134-8 116 4 85 4 32 4 16-35 15-94c0-66 23-100 70-100zm9 24c-40 0-46 34-46 75 0 40 6 74 45 74 42 0 51-32 51-76 0-42-9-74-50-73" id="v"/><path d="M114-163C36-179 61-72 57 0H25l-1-190h30c1 12-1 29 2 39 6-27 23-49 58-41v29" id="w"/><g id="d"><use transform="matrix(0.05,0,0,0.05,0,0)" xlink:href="#t"/><use transform="matrix(0.05,0,0,0.05,12.950000000000001,0)" xlink:href="#u"/><use transform="matrix(0.05,0,0,0.05,22.950000000000003,0)" xlink:href="#k"/><use transform="matrix(0.05,0,0,0.05,32.95,0)" xlink:href="#v"/><use transform="matrix(0.05,0,0,0.05,42.95,0)" xlink:href="#u"/><use transform="matrix(0.05,0,0,0.05,52.95,0)" xlink:href="#w"/></g><g id="e"><use transform="matrix(0.05,0,0,0.05,0,0)" xlink:href="#i"/><use transform="matrix(0.05,0,0,0.05,12,0)" xlink:href="#j"/><use transform="matrix(0.05,0,0,0.05,22,0)" xlink:href="#k"/><use transform="matrix(0.05,0,0,0.05,32,0)" xlink:href="#l"/></g><path d="M101-251c68 0 85 55 85 127S166 4 100 4C33 4 14-52 14-124c0-73 17-127 87-127zm-1 229c47 0 54-49 54-102s-4-102-53-102c-51 0-55 48-55 102 0 53 5 102 54 102" id="x"/><use transform="matrix(0.05,0,0,0.05,0,0)" xlink:href="#x" id="f"/><path d="M27 0v-27h64v-190l-56 39v-29l58-41h29v221h61V0H27" id="y"/><use transform="matrix(0.05,0,0,0.05,0,0)" xlink:href="#y" id="g"/><path d="M101-251c82-7 93 87 43 132L82-64C71-53 59-42 53-27h129V0H18c2-99 128-94 128-182 0-28-16-43-45-43s-46 15-49 41l-32-3c6-41 34-60 81-64" id="z"/><use transform="matrix(0.05,0,0,0.05,0,0)" xlink:href="#z" id="h"/></defs></g></svg>