<svg xmlns="http://www.w3.org/2000/svg" xmlns:xlink="http://www.w3.org/1999/xlink" xmlns:lucid="lucid" width="477.9" height="862.5"><g transform="translate(-42.10000000000002 -57.5)" lucid:page-tab-id="0_0"><path d="M0 0h1760v1360H0z" fill="#fff"/><path d="M80 300h80v160H80z" stroke="#000" stroke-opacity="0" fill="#c1e4f7"/><path d="M240 180h80v40h-80z" stroke="#000" stroke-width="2" fill="#c7e8ac"/><use xlink:href="#a" transform="matrix(1,0,0,1,240,180) translate(10.549999999999997 23.6)"/><path d="M240 220h80v80h-80z" fill="#c7e8ac"/><path d="M247 220h6m4 0h6m4 0h6m4 0h6m4 0h6m4 0h6m4 0h6m4 0h3v3m0 4v6m0 4v6m0 4v6m0 4v6m0 4v6m0 4v6m0 4v6m0 4v3h-3m-4 0h-6m-4 0h-6m-4 0h-6m-4 0h-6m-4 0h-6m-4 0h-6m-4 0h-6m-4 0h-3v-3m0-4v-6m0-4v-6m0-4v-6m0-4v-6m0-4v-6m0-4v-6m0-4v-6m0-4v-3h3" stroke="#000" stroke-width="2" fill="none"/><use xlink:href="#b" transform="matrix(1,0,0,1,240,220) translate(4.024999999999999 32.8)"/><use xlink:href="#c" transform="matrix(1,0,0,1,240,220) translate(10.599999999999994 54.4)"/><path d="M360 220h100v80H360z" fill="none"/><path d="M360 300c2.76 0 5-2.24 5-5v-30c0-2.76 2.24-5 5-5-2.76 0-5-2.24-5-5v-30c0-2.76-2.24-5-5-5" stroke="#000" stroke-width="2" fill="none"/><use xlink:href="#d" transform="matrix(1,0,0,1,375,220) translate(0 43.6)"/><path d="M360 180h140v40H360z" fill="none"/><path d="M360 220c1.38 0 2.5-1.12 2.5-2.5v-15c0-1.38 1.12-2.5 2.5-2.5-1.38 0-2.5-1.12-2.5-2.5v-15c0-1.38-1.12-2.5-2.5-2.5" stroke="#000" stroke-width="2" fill="none"/><use xlink:href="#e" transform="matrix(1,0,0,1,367.5,180) translate(0 23.6)"/><path d="M240 460h80v40h-80z" stroke="#000" stroke-width="2" fill="#ffeca9"/><use xlink:href="#f" transform="matrix(1,0,0,1,240,460) translate(14.049999999999997 23.6)"/><path d="M360 460h140v40H360z" fill="none"/><path d="M360 500c1.38 0 2.5-1.12 2.5-2.5v-15c0-1.38 1.12-2.5 2.5-2.5-1.38 0-2.5-1.12-2.5-2.5v-15c0-1.38-1.12-2.5-2.5-2.5" stroke="#000" stroke-width="2" fill="none"/><use xlink:href="#e" transform="matrix(1,0,0,1,367.5,460) translate(44.55 23.6)"/><path d="M240 300h80v160h-80z" fill="#c1e4f7"/><path d="M247 300h6m4 0h6m4 0h6m4 0h6m4 0h6m4 0h6m4 0h6m4 0h3v3m0 4v6m0 4v6m0 4v6m0 4v6m0 4v6m0 4v6m0 4v6m0 4v6m0 4v6m0 4v6m0 4v6m0 4v6m0 4v6m0 4v6m0 4v6m0 4v3h-3m-4 0h-6m-4 0h-6m-4 0h-6m-4 0h-6m-4 0h-6m-4 0h-6m-4 0h-6m-4 0h-3v-3m0-4v-6m0-4v-6m0-4v-6m0-4v-6m0-4v-6m0-4v-6m0-4v-6m0-4v-6m0-4v-6m0-4v-6m0-4v-6m0-4v-6m0-4v-6m0-4v-6m0-4v-6m0-4v-3h3" stroke="#000" stroke-width="2" fill="none"/><use xlink:href="#g" transform="matrix(1,0,0,1,240,300) translate(4.099999999999994 83.60000000000001)"/><path d="M360 300h100v160H360z" fill="none"/><path d="M360 460c5.52 0 10-4.48 10-10v-60c0-5.52 4.48-10 10-10-5.52 0-10-4.48-10-10v-60c0-5.52-4.48-10-10-10" stroke="#000" stroke-width="2" fill="none"/><use xlink:href="#d" transform="matrix(1,0,0,1,390,300) translate(2.75 83.60000000000001)"/><g fill="none"><path d="M238.67 160V80h82.66v80z"/><path d="M321.33 160c0-2.85-2.3-5.17-5.16-5.17h-31c-2.86 0-5.17-2.3-5.17-5.16 0 2.85-2.3 5.16-5.17 5.16h-31c-2.85 0-5.16 2.32-5.16 5.17" stroke="#000" stroke-width="2"/></g><use xlink:href="#h" transform="matrix(6.123233995736766e-17,-1,1,6.123233995736766e-17,238.66666666666674,144.5) translate(0 45.1)"/><path d="M80 180h80v120H80z" stroke="#000" stroke-opacity="0" stroke-width="2" fill="#c7e8ac"/><path d="M80 460h80v40H80z" stroke="#000" stroke-opacity="0" stroke-width="2" fill="#ffeca9"/><path d="M80 180h80v720H80z" stroke="#000" stroke-width="2" fill-opacity="0"/><use xlink:href="#i" transform="matrix(6.123233995736766e-17,-1,1,6.123233995736766e-17,80,900) translate(304.1 43.6)"/><use xlink:href="#j" transform="matrix(6.123233995736766e-17,-1,1,6.123233995736766e-17,80,900) translate(356 43.6)"/><use xlink:href="#k" transform="matrix(6.123233995736766e-17,-1,1,6.123233995736766e-17,80,900) translate(381 43.6)"/><defs><path d="M197 0v-115H63V0H30v-248h33v105h134v-105h34V0h-34" id="l"/><path d="M100-194c63 0 86 42 84 106H49c0 40 14 67 53 68 26 1 43-12 49-29l28 8c-11 28-37 45-77 45C44 4 14-33 15-96c1-61 26-98 85-98zm52 81c6-60-76-77-97-28-3 7-6 17-6 28h103" id="m"/><path d="M141-36C126-15 110 5 73 4 37 3 15-17 15-53c-1-64 63-63 125-63 3-35-9-54-41-54-24 1-41 7-42 31l-33-3c5-37 33-52 76-52 45 0 72 20 72 64v82c-1 20 7 32 28 27v20c-31 9-61-2-59-35zM48-53c0 20 12 33 32 33 41-3 63-29 60-74-43 2-92-5-92 41" id="n"/><path d="M85-194c31 0 48 13 60 33l-1-100h32l1 261h-30c-2-10 0-23-3-31C134-8 116 4 85 4 32 4 16-35 15-94c0-66 23-100 70-100zm9 24c-40 0-46 34-46 75 0 40 6 74 45 74 42 0 51-32 51-76 0-42-9-74-50-73" id="o"/><path d="M114-163C36-179 61-72 57 0H25l-1-190h30c1 12-1 29 2 39 6-27 23-49 58-41v29" id="p"/><g id="a"><use transform="matrix(0.05,0,0,0.05,0,0)" xlink:href="#l"/><use transform="matrix(0.05,0,0,0.05,12.950000000000001,0)" xlink:href="#m"/><use transform="matrix(0.05,0,0,0.05,22.950000000000003,0)" xlink:href="#n"/><use transform="matrix(0.05,0,0,0.05,32.95,0)" xlink:href="#o"/><use transform="matrix(0.05,0,0,0.05,42.95,0)" xlink:href="#m"/><use transform="matrix(0.05,0,0,0.05,52.95,0)" xlink:href="#p"/></g><path d="M185-189c-5-48-123-54-124 2 14 75 158 14 163 119 3 78-121 87-175 55-17-10-28-26-33-46l33-7c5 56 141 63 141-1 0-78-155-14-162-118-5-82 145-84 179-34 5 7 8 16 11 25" id="q"/><path d="M177-190C167-65 218 103 67 71c-23-6-38-20-44-43l32-5c15 47 100 32 89-28v-30C133-14 115 1 83 1 29 1 15-40 15-95c0-56 16-97 71-98 29-1 48 16 59 35 1-10 0-23 2-32h30zM94-22c36 0 50-32 50-73 0-42-14-75-50-75-39 0-46 34-46 75s6 73 46 73" id="r"/><path d="M210-169c-67 3-38 105-44 169h-31v-121c0-29-5-50-35-48C34-165 62-65 56 0H25l-1-190h30c1 10-1 24 2 32 10-44 99-50 107 0 11-21 27-35 58-36 85-2 47 119 55 194h-31v-121c0-29-5-49-35-48" id="s"/><path d="M117-194c89-4 53 116 60 194h-32v-121c0-31-8-49-39-48C34-167 62-67 57 0H25l-1-190h30c1 10-1 24 2 32 11-22 29-35 61-36" id="t"/><path d="M59-47c-2 24 18 29 38 22v24C64 9 27 4 27-40v-127H5v-23h24l9-43h21v43h35v23H59v120" id="u"/><g id="b"><use transform="matrix(0.05,0,0,0.05,0,0)" xlink:href="#q"/><use transform="matrix(0.05,0,0,0.05,12,0)" xlink:href="#m"/><use transform="matrix(0.05,0,0,0.05,22,0)" xlink:href="#r"/><use transform="matrix(0.05,0,0,0.05,32,0)" xlink:href="#s"/><use transform="matrix(0.05,0,0,0.05,46.95,0)" xlink:href="#m"/><use transform="matrix(0.05,0,0,0.05,56.95,0)" xlink:href="#t"/><use transform="matrix(0.05,0,0,0.05,66.95,0)" xlink:href="#u"/></g><path d="M63-220v92h138v28H63V0H30v-248h175v28H63" id="v"/><path d="M24 0v-261h32V0H24" id="w"/><path d="M24-231v-30h32v30H24zM24 0v-190h32V0H24" id="x"/><path d="M135-143c-3-34-86-38-87 0 15 53 115 12 119 90S17 21 10-45l28-5c4 36 97 45 98 0-10-56-113-15-118-90-4-57 82-63 122-42 12 7 21 19 24 35" id="y"/><g id="c"><use transform="matrix(0.05,0,0,0.05,0,0)" xlink:href="#v"/><use transform="matrix(0.05,0,0,0.05,10.950000000000001,0)" xlink:href="#p"/><use transform="matrix(0.05,0,0,0.05,16.900000000000002,0)" xlink:href="#m"/><use transform="matrix(0.05,0,0,0.05,26.900000000000002,0)" xlink:href="#m"/><use transform="matrix(0.05,0,0,0.05,36.900000000000006,0)" xlink:href="#w"/><use transform="matrix(0.05,0,0,0.05,40.85000000000001,0)" xlink:href="#x"/><use transform="matrix(0.05,0,0,0.05,44.80000000000001,0)" xlink:href="#y"/><use transform="matrix(0.05,0,0,0.05,53.80000000000001,0)" xlink:href="#u"/></g><path d="M137 0h-34L2-248h35l83 218 83-218h36" id="z"/><path d="M115-194c53 0 69 39 70 98 0 66-23 100-70 100C84 3 66-7 56-30L54 0H23l1-261h32v101c10-23 28-34 59-34zm-8 174c40 0 45-34 45-75 0-40-5-75-45-74-42 0-51 32-51 76 0 43 10 73 51 73" id="A"/><g id="d"><use transform="matrix(0.05,0,0,0.05,0,0)" xlink:href="#z"/><use transform="matrix(0.05,0,0,0.05,10.65,0)" xlink:href="#n"/><use transform="matrix(0.05,0,0,0.05,20.65,0)" xlink:href="#p"/><use transform="matrix(0.05,0,0,0.05,26.599999999999994,0)" xlink:href="#x"/><use transform="matrix(0.05,0,0,0.05,30.549999999999997,0)" xlink:href="#n"/><use transform="matrix(0.05,0,0,0.05,40.55,0)" xlink:href="#A"/><use transform="matrix(0.05,0,0,0.05,50.55,0)" xlink:href="#w"/><use transform="matrix(0.05,0,0,0.05,54.5,0)" xlink:href="#m"/></g><path d="M141 0L90-78 38 0H4l68-98-65-92h35l48 74 47-74h35l-64 92 68 98h-35" id="B"/><g id="e"><use transform="matrix(0.05,0,0,0.05,0,0)" xlink:href="#v"/><use transform="matrix(0.05,0,0,0.05,10.950000000000001,0)" xlink:href="#x"/><use transform="matrix(0.05,0,0,0.05,14.9,0)" xlink:href="#B"/><use transform="matrix(0.05,0,0,0.05,23.900000000000002,0)" xlink:href="#m"/><use transform="matrix(0.05,0,0,0.05,33.900000000000006,0)" xlink:href="#o"/></g><path d="M100-194c62-1 85 37 85 99 1 63-27 99-86 99S16-35 15-95c0-66 28-99 85-99zM99-20c44 1 53-31 53-75 0-43-8-75-51-75s-53 32-53 75 10 74 51 75" id="C"/><g id="f"><use transform="matrix(0.05,0,0,0.05,0,0)" xlink:href="#v"/><use transform="matrix(0.05,0,0,0.05,10.950000000000001,0)" xlink:href="#C"/><use transform="matrix(0.05,0,0,0.05,20.950000000000003,0)" xlink:href="#C"/><use transform="matrix(0.05,0,0,0.05,30.950000000000003,0)" xlink:href="#u"/><use transform="matrix(0.05,0,0,0.05,35.95,0)" xlink:href="#m"/><use transform="matrix(0.05,0,0,0.05,45.95,0)" xlink:href="#p"/></g><path d="M30-248c118-7 216 8 213 122C240-48 200 0 122 0H30v-248zM63-27c89 8 146-16 146-99s-60-101-146-95v194" id="D"/><path d="M96-169c-40 0-48 33-48 73s9 75 48 75c24 0 41-14 43-38l32 2c-6 37-31 61-74 61-59 0-76-41-82-99-10-93 101-131 147-64 4 7 5 14 7 22l-32 3c-4-21-16-35-41-35" id="E"/><path d="M179-190L93 31C79 59 56 82 12 73V49c39 6 53-20 64-50L1-190h34L92-34l54-156h33" id="F"/><g id="g"><use transform="matrix(0.05,0,0,0.05,0,0)" xlink:href="#D"/><use transform="matrix(0.05,0,0,0.05,12.950000000000001,0)" xlink:href="#x"/><use transform="matrix(0.05,0,0,0.05,16.900000000000002,0)" xlink:href="#p"/><use transform="matrix(0.05,0,0,0.05,22.85,0)" xlink:href="#m"/><use transform="matrix(0.05,0,0,0.05,32.85,0)" xlink:href="#E"/><use transform="matrix(0.05,0,0,0.05,41.85,0)" xlink:href="#u"/><use transform="matrix(0.05,0,0,0.05,46.85,0)" xlink:href="#C"/><use transform="matrix(0.05,0,0,0.05,56.85,0)" xlink:href="#p"/><use transform="matrix(0.05,0,0,0.05,62.800000000000004,0)" xlink:href="#F"/></g><path d="M240 0l2-218c-23 76-54 145-80 218h-23L58-218 59 0H30v-248h44l77 211c21-75 51-140 76-211h43V0h-30" id="G"/><g id="h"><use transform="matrix(0.05,0,0,0.05,0,0)" xlink:href="#G"/><use transform="matrix(0.05,0,0,0.05,14.950000000000001,0)" xlink:href="#m"/><use transform="matrix(0.05,0,0,0.05,24.950000000000003,0)" xlink:href="#s"/><use transform="matrix(0.05,0,0,0.05,39.900000000000006,0)" xlink:href="#C"/><use transform="matrix(0.05,0,0,0.05,49.900000000000006,0)" xlink:href="#p"/><use transform="matrix(0.05,0,0,0.05,55.85,0)" xlink:href="#F"/></g><path d="M115-194c55 1 70 41 70 98S169 2 115 4C84 4 66-9 55-30l1 105H24l-1-265h31l2 30c10-21 28-34 59-34zm-8 174c40 0 45-34 45-75s-6-73-45-74c-42 0-51 32-51 76 0 43 10 73 51 73" id="H"/><g id="i"><use transform="matrix(0.05,0,0,0.05,0,0)" xlink:href="#q"/><use transform="matrix(0.05,0,0,0.05,12,0)" xlink:href="#u"/><use transform="matrix(0.05,0,0,0.05,17,0)" xlink:href="#p"/><use transform="matrix(0.05,0,0,0.05,22.95,0)" xlink:href="#x"/><use transform="matrix(0.05,0,0,0.05,26.899999999999995,0)" xlink:href="#H"/><use transform="matrix(0.05,0,0,0.05,36.9,0)" xlink:href="#m"/></g><g id="j"><use transform="matrix(0.05,0,0,0.05,0,0)" xlink:href="#C"/><use transform="matrix(0.05,0,0,0.05,10,0)" xlink:href="#t"/></g><path d="M143 0L79-87 56-68V0H24v-261h32v163l83-92h37l-77 82L181 0h-38" id="I"/><g id="k"><use transform="matrix(0.05,0,0,0.05,0,0)" xlink:href="#D"/><use transform="matrix(0.05,0,0,0.05,12.950000000000001,0)" xlink:href="#x"/><use transform="matrix(0.05,0,0,0.05,16.900000000000002,0)" xlink:href="#y"/><use transform="matrix(0.05,0,0,0.05,25.900000000000002,0)" xlink:href="#I"/></g></defs></g></svg>