<?xml version="1.0" encoding="UTF-8" standalone="no"?><svg xmlns="http://www.w3.org/2000/svg" xmlns:xlink="http://www.w3.org/1999/xlink" contentScriptType="application/ecmascript" contentStyleType="text/css" height="109px" preserveAspectRatio="none" style="width:513px;height:109px;" version="1.1" viewBox="0 0 513 109" width="513px" zoomAndPan="magnify"><defs><filter height="300%" id="f18p37jwo5ssms" width="300%" x="-1" y="-1"><feGaussianBlur result="blurOut" stdDeviation="2.0"/><feColorMatrix in="blurOut" result="blurOut2" type="matrix" values="0 0 0 0 0 0 0 0 0 0 0 0 0 0 0 0 0 0 .4 0"/><feOffset dx="4.0" dy="4.0" in="blurOut2" result="blurOut3"/><feBlend in="SourceGraphic" in2="blurOut3" mode="normal"/></filter></defs><g><!--cluster Corporate Net--><polygon fill="#FFFFFF" filter="url(#f18p37jwo5ssms)" points="361.5,16,481.5,16,488.5,38.2969,491.5,38.2969,491.5,97,361.5,97,361.5,16" style="stroke: #000000; stroke-width: 2.0;"/><line style="stroke: #000000; stroke-width: 2.0;" x1="361.5" x2="488.5" y1="38.2969" y2="38.2969"/><text fill="#000000" font-family="sans-serif" font-size="14" font-weight="bold" lengthAdjust="spacingAndGlyphs" textLength="114" x="365.5" y="30.9951">Corporate Net</text><!--entity Service--><polygon fill="#FEFECE" filter="url(#f18p37jwo5ssms)" points="380,53,390,43,473,43,473,79.2969,463,89.2969,380,89.2969,380,53" style="stroke: #000000; stroke-width: 1.5;"/><line style="stroke: #000000; stroke-width: 1.5;" x1="463" x2="472" y1="53" y2="44"/><line style="stroke: #000000; stroke-width: 1.5;" x1="380" x2="463" y1="53" y2="53"/><line style="stroke: #000000; stroke-width: 1.5;" x1="463" x2="463" y1="53" y2="89.2969"/><text fill="#000000" font-family="sans-serif" font-size="14" lengthAdjust="spacingAndGlyphs" textLength="53" x="395" y="75.9951">Service</text><!--entity Client--><polygon fill="#FEFECE" filter="url(#f18p37jwo5ssms)" points="6,53,16,43,87,43,87,79.2969,77,89.2969,6,89.2969,6,53" style="stroke: #000000; stroke-width: 1.5;"/><line style="stroke: #000000; stroke-width: 1.5;" x1="77" x2="86" y1="53" y2="44"/><line style="stroke: #000000; stroke-width: 1.5;" x1="6" x2="77" y1="53" y2="53"/><line style="stroke: #000000; stroke-width: 1.5;" x1="77" x2="77" y1="53" y2="89.2969"/><text fill="#000000" font-family="sans-serif" font-size="14" lengthAdjust="spacingAndGlyphs" textLength="41" x="21" y="75.9951">Client</text><!--entity Cloud--><path d="M125,46.5 C125,43.5 127,41.5 130,41.5 C133,41.5 135,43.5 135,46.5 C135,43.5 137,41.5 140,41.5 C143,41.5 145,43.5 145,46.5 C145,43.5 147,41.5 150,41.5 C153,41.5 155,43.5 155,46.5 C155,43.5 157,41.5 160,41.5 C163,41.5 165,43.5 165,46.5 C165,43.5 167,41.5 170,41.5 C173,41.5 175,43.5 175,46.5 C175,43.5 177,41.5 180,41.5 C183,41.5 185,43.5 185,46.5 C185,43.5 187,41.5 190,41.5 C193,41.5 195,43.5 195,46.5 C195,43.5 197,41.5 200,41.5 C203,41.5 205,43.5 205,46.5 C208,46.5 210,48.5 210,51.5 C210,54.5 208,56.5 205,56.5 C208,56.5 210,58.5 210,61.5 C210,64.5 208,66.5 205,66.5 C208,66.5 210,68.5 210,71.5 C210,74.5 208,76.5 205,76.5 C208,76.5 210,78.5 210,81.5 C210,84.5 208,86.5 205,86.5 C205,89.5 202,91.5 200,91.5 C197,91.5 195,89.5 195,86.5 C195,89.5 192,91.5 190,91.5 C187,91.5 185,89.5 185,86.5 C185,89.5 182,91.5 180,91.5 C177,91.5 175,89.5 175,86.5 C175,89.5 172,91.5 170,91.5 C167,91.5 165,89.5 165,86.5 C165,89.5 162,91.5 160,91.5 C157,91.5 155,89.5 155,86.5 C155,89.5 152,91.5 150,91.5 C147,91.5 145,89.5 145,86.5 C145,89.5 142,91.5 140,91.5 C137,91.5 135,89.5 135,86.5 C135,89.5 132,91.5 130,91.5 C127,91.5 125,89.5 125,86.5 C122,86.5 120,84.5 120,81.5 C120,78.5 122,76.5 125,76.5 C122,76.5 120,74.5 120,71.5 C120,68.5 122,66.5 125,66.5 C122,66.5 120,64.5 120,61.5 C120,58.5 122,56.5 125,56.5 C122,56.5 120,54.5 120,51.5 C120,48.5 122,46.5 125,46.5 " fill="#FEFECE" filter="url(#f18p37jwo5ssms)" style="stroke: #000000; stroke-width: 1.5;"/><text fill="#000000" font-family="sans-serif" font-size="14" lengthAdjust="spacingAndGlyphs" textLength="69" x="132" y="62.4951">Untrusted</text><text fill="#000000" font-family="sans-serif" font-size="14" lengthAdjust="spacingAndGlyphs" textLength="65" x="132" y="78.792">Networks</text><!--entity Edge TS--><polygon fill="#FEFECE" filter="url(#f18p37jwo5ssms)" points="246.5,53,256.5,43,344.5,43,344.5,79.2969,334.5,89.2969,246.5,89.2969,246.5,53" style="stroke: #000000; stroke-width: 1.5;"/><line style="stroke: #000000; stroke-width: 1.5;" x1="334.5" x2="343.5" y1="53" y2="44"/><line style="stroke: #000000; stroke-width: 1.5;" x1="246.5" x2="334.5" y1="53" y2="53"/><line style="stroke: #000000; stroke-width: 1.5;" x1="334.5" x2="334.5" y1="53" y2="89.2969"/><text fill="#000000" font-family="sans-serif" font-size="14" lengthAdjust="spacingAndGlyphs" textLength="58" x="261.5" y="75.9951">Edge TS</text><!--link Client to Cloud--><path d="M92.4258,66 C100.5728,66 108.7198,66 116.8668,66 " fill="none" id="Client-Cloud" style="stroke: #A80036; stroke-width: 1.0;"/><polygon fill="#A80036" points="121.9395,66,112.9395,62,116.9395,66,112.9395,70,121.9395,66" style="stroke: #A80036; stroke-width: 1.0;"/><polygon fill="#A80036" points="87.2813,66,96.2813,70,92.2813,66,96.2813,62,87.2813,66" style="stroke: #A80036; stroke-width: 1.0;"/><!--link Cloud to Edge TS--><path d="M216.3323,66 C224.6251,66 232.9179,66 241.2106,66 " fill="none" id="Cloud-Edge TS" style="stroke: #A80036; stroke-width: 1.0;"/><polygon fill="#A80036" points="246.3741,66,237.3741,62,241.3741,66,237.3741,70,246.3741,66" style="stroke: #A80036; stroke-width: 1.0;"/><polygon fill="#A80036" points="211.0957,66,220.0957,70,216.0957,66,220.0957,62,211.0957,66" style="stroke: #A80036; stroke-width: 1.0;"/><!--link Edge TS to Service--><path d="M349.8471,66 C358.1169,66 366.3867,66 374.6565,66 " fill="none" id="Edge TS-Service" style="stroke: #A80036; stroke-width: 1.0;"/><polygon fill="#A80036" points="379.8057,66,370.8057,62,374.8057,66,370.8057,70,379.8057,66" style="stroke: #A80036; stroke-width: 1.0;"/><polygon fill="#A80036" points="344.625,66,353.625,70,349.625,66,353.625,62,344.625,66" style="stroke: #A80036; stroke-width: 1.0;"/><!--
@startuml
hide empty members

node Client
cloud "Untrusted\nNetworks" as Cloud
node "Edge TS"
package "Corporate Net" {
    node Service
}

[Client] <-> [Cloud]
[Cloud] <-> [Edge TS]
[Edge TS] <-> [Service]
@enduml

PlantUML version 1.2017.18(Fri Oct 06 11:56:32 CDT 2017)
(GPL source distribution)
Java Runtime: OpenJDK Runtime Environment
JVM: OpenJDK 64-Bit Server VM
Java Version: 1.8.0_151-b12
Operating System: Linux
OS Version: 4.13.13-200.fc26.x86_64
Default Encoding: UTF-8
Language: en
Country: US
--></g></svg>