<?xml version="1.0" encoding="UTF-8" standalone="no"?>
<!-- Created with Inkscape (http://www.inkscape.org/) -->

<svg
   xmlns:dc="http://purl.org/dc/elements/1.1/"
   xmlns:cc="http://creativecommons.org/ns#"
   xmlns:rdf="http://www.w3.org/1999/02/22-rdf-syntax-ns#"
   xmlns:svg="http://www.w3.org/2000/svg"
   xmlns="http://www.w3.org/2000/svg"
   xmlns:sodipodi="http://sodipodi.sourceforge.net/DTD/sodipodi-0.dtd"
   xmlns:inkscape="http://www.inkscape.org/namespaces/inkscape"
   version="1.1"
   width="626.37305"
   height="119.65939"
   id="svg4326"
   inkscape:version="0.48.2 r9819"
   sodipodi:docname="trafficserver.svg"
   inkscape:export-filename="D:\trafficserver.png"
   inkscape:export-xdpi="200.00861"
   inkscape:export-ydpi="200.00861">
  <sodipodi:namedview
     pagecolor="#ffffff"
     bordercolor="#666666"
     borderopacity="1"
     objecttolerance="10"
     gridtolerance="10"
     guidetolerance="10"
     inkscape:pageopacity="0"
     inkscape:pageshadow="2"
     inkscape:window-width="1855"
     inkscape:window-height="978"
     id="namedview3003"
     showgrid="false"
     fit-margin-top="0"
     fit-margin-left="0"
     fit-margin-right="0"
     fit-margin-bottom="0"
     inkscape:zoom="1.3881505"
     inkscape:cx="166.22838"
     inkscape:cy="59.829693"
     inkscape:window-x="-4"
     inkscape:window-y="-4"
     inkscape:window-maximized="1"
     inkscape:current-layer="layer1" />
  <defs
     id="defs4328" />
  <metadata
     id="metadata4331">
    <rdf:RDF>
      <cc:Work
         rdf:about="">
        <dc:format>image/svg+xml</dc:format>
        <dc:type
           rdf:resource="http://purl.org/dc/dcmitype/StillImage" />
        <dc:title />
      </cc:Work>
    </rdf:RDF>
  </metadata>
  <g
     transform="translate(-64.306719,-35.389622)"
     id="layer1">
    <path
       d="m 362.85715,543.43359 a 17.142857,17.142857 0 1 1 -34.28571,0 17.142857,17.142857 0 1 1 34.28571,0 z"
       transform="translate(4.3004771,-490.89283)"
       id="path2996"
       style="fill:#e9000d;fill-opacity:1;fill-rule:evenodd;stroke:#000000;stroke-width:0;stroke-linecap:butt;stroke-linejoin:miter;stroke-miterlimit:4;stroke-opacity:1;stroke-dasharray:none"
       inkscape:connector-curvature="0"
       inkscape:export-filename="D:\ts_logo_tm_1960x375.png"
       inkscape:export-xdpi="281.62"
       inkscape:export-ydpi="281.62" />
    <path
       d="m 362.85715,543.43359 a 17.142857,17.142857 0 1 1 -34.28571,0 17.142857,17.142857 0 1 1 34.28571,0 z"
       transform="translate(4.3004771,-448.17853)"
       id="path2996-1"
       style="fill:#ffd100;fill-opacity:1;fill-rule:evenodd;stroke:#000000;stroke-width:0;stroke-linecap:butt;stroke-linejoin:miter;stroke-miterlimit:4;stroke-opacity:1;stroke-dasharray:none"
       inkscape:connector-curvature="0"
       inkscape:export-filename="D:\ts_logo_tm_1960x375.png"
       inkscape:export-xdpi="281.62"
       inkscape:export-ydpi="281.62" />
    <path
       d="m 362.85715,543.43359 a 17.142857,17.142857 0 1 1 -34.28571,0 17.142857,17.142857 0 1 1 34.28571,0 z"
       transform="matrix(1,0,0,-1,4.3004771,681.33146)"
       id="path2996-7"
       style="fill:#00a434;fill-opacity:1;fill-rule:evenodd;stroke:#000000;stroke-width:0;stroke-linecap:butt;stroke-linejoin:miter;stroke-miterlimit:4;stroke-opacity:1;stroke-dasharray:none"
       inkscape:connector-curvature="0"
       inkscape:export-filename="D:\ts_logo_tm_1960x375.png"
       inkscape:export-xdpi="281.62"
       inkscape:export-ydpi="281.62" />
    <g
       transform="scale(1.0831392,0.92324237)"
       style="font-size:98.0511322px;font-style:normal;font-variant:normal;font-weight:normal;font-stretch:normal;line-height:125%;letter-spacing:0px;word-spacing:0px;fill:#000000;fill-opacity:1;stroke:none;font-family:Sans;-inkscape-font-specification:Sans"
       id="text3038">
      <path
         d="m 82.92594,127.13331 1.24479,7.61237 c -2.425768,0.51068 -4.596169,0.76602 -6.511208,0.76602 -3.12795,0 -5.553692,-0.49472 -7.277232,-1.48417 -1.723566,-0.98945 -2.936437,-2.29009 -3.638617,-3.90194 -0.702197,-1.61183 -1.053291,-5.00309 -1.053283,-10.17376 l 0,-29.252559 -6.319702,0 0,-6.702715 6.319702,0 0,-12.591527 8.569899,-5.170665 0,17.762192 8.665651,0 0,6.702715 -8.665651,0 0,29.731329 c -1.7e-5,2.45767 0.151592,4.03759 0.454827,4.73977 0.3032,0.7022 0.797924,1.26076 1.484172,1.67568 0.686211,0.41494 1.667679,0.6224 2.944407,0.6224 0.957508,0 2.218255,-0.11171 3.782245,-0.33514 z"
         style="fill:#000000;font-family:Sans;-inkscape-font-specification:Sans"
         id="path3034" />
      <path
         d="m 91.20858,134.84143 0,-50.844874 7.755998,0 0,7.708122 c 1.978882,-3.606652 3.806162,-5.984517 5.481862,-7.133603 1.67566,-1.148985 3.5189,-1.723503 5.52974,-1.723555 2.90448,5.2e-5 5.85686,0.925664 8.85716,2.776838 l -2.96835,7.995381 c -2.10659,-1.244747 -4.21316,-1.867142 -6.3197,-1.867185 -1.88317,4.3e-5 -3.5748,0.566582 -5.07491,1.699617 -1.50015,1.133118 -2.56939,2.705063 -3.20773,4.715838 -0.95754,3.064131 -1.43631,6.415481 -1.436295,10.054071 l 0,26.61935 z"
         style="fill:#000000;font-family:Sans;-inkscape-font-specification:Sans"
         id="path3036" />
      <path
         d="m 157.23031,128.56961 c -3.1918,2.713 -6.26388,4.62806 -9.21623,5.74518 -2.95241,1.11712 -6.12024,1.67568 -9.50349,1.67568 -5.58561,0 -9.87853,-1.36448 -12.87879,-4.09345 -3.00026,-2.72895 -4.50039,-6.21596 -4.50039,-10.46102 0,-2.48956 0.56653,-4.76369 1.69962,-6.8224 1.13307,-2.05867 2.61724,-3.71041 4.45251,-4.95522 1.83526,-1.24477 3.90193,-2.18634 6.20001,-2.82472 1.69162,-0.44682 4.24504,-0.87771 7.66025,-1.29267 6.95802,-0.82983 12.08081,-1.81927 15.36837,-2.96834 0.0319,-1.18092 0.0478,-1.93099 0.0479,-2.2502 -4e-5,-3.510904 -0.81394,-5.984523 -2.4417,-7.420859 -2.20236,-1.946935 -5.47392,-2.920424 -9.81469,-2.920468 -4.05357,4.4e-5 -7.04585,0.710212 -8.97685,2.130505 -1.93103,1.420379 -3.35935,3.933894 -4.28495,7.540554 l -8.42627,-1.149037 c 0.76602,-3.606659 2.02677,-6.519145 3.78225,-8.737467 1.75546,-2.218232 4.29291,-3.925826 7.61237,-5.122788 3.31942,-1.196862 7.16549,-1.795318 11.53824,-1.79537 4.34077,5.2e-5 7.86767,0.510734 10.58071,1.532049 2.71296,1.021415 4.70782,2.306101 5.98457,3.85406 1.27666,1.548053 2.17036,3.503009 2.68108,5.864875 0.28722,1.468253 0.43085,4.117418 0.43089,7.947506 l 0,11.49037 c -4e-5,8.01135 0.18348,13.07828 0.55058,15.20079 0.36701,2.12253 1.09314,4.15728 2.17839,6.10426 l -9.00079,0 c -0.89374,-1.78739 -1.46826,-3.87799 -1.72356,-6.27182 z m -0.71814,-19.24637 c -3.12797,1.27673 -7.81987,2.36193 -14.0757,3.2556 -3.54289,0.51071 -6.04842,1.08523 -7.51662,1.72356 -1.46823,0.63837 -2.60131,1.57196 -3.39923,2.80078 -0.79796,1.22884 -1.19693,2.59332 -1.19692,4.09344 -1e-5,2.29808 0.86975,4.21314 2.60927,5.74518 1.7395,1.53206 4.28493,2.29808 7.63631,2.29808 3.31941,0 6.2718,-0.72612 8.85716,-2.17839 2.5853,-1.45224 4.4844,-3.43911 5.69731,-5.96062 0.92557,-1.94697 1.38838,-4.81956 1.38842,-8.61778 z"
         style="fill:#000000;font-family:Sans;-inkscape-font-specification:Sans"
         id="path3038" />
      <path
         d="m 180.68982,134.84143 0,-44.142159 -7.61237,0 0,-6.702715 7.61237,0 0,-5.410047 c -1e-5,-3.415133 0.3032,-5.952587 0.90965,-7.612369 0.82985,-2.234171 2.29008,-4.045498 4.3807,-5.433986 2.09059,-1.388348 5.01904,-2.082557 8.78535,-2.082629 2.42571,7.2e-5 5.1068,0.287331 8.04325,0.861778 l -1.29266,7.516615 c -1.78742,-0.319114 -3.47906,-0.478702 -5.07492,-0.478765 -2.61727,6.3e-5 -4.46849,0.558622 -5.55367,1.675678 -1.08522,1.11718 -1.62782,3.207786 -1.62781,6.271826 l 0,4.691899 9.91045,0 0,6.702715 -9.91045,0 0,44.142159 z"
         style="fill:#000000;font-family:Sans;-inkscape-font-specification:Sans"
         id="path3040" />
      <path
         d="m 207.88368,134.84143 0,-44.142159 -7.61237,0 0,-6.702715 7.61237,0 0,-5.410047 c -1e-5,-3.415133 0.30321,-5.952587 0.90965,-7.612369 0.82985,-2.234171 2.29008,-4.045498 4.3807,-5.433986 2.0906,-1.388348 5.01904,-2.082557 8.78535,-2.082629 2.42572,7.2e-5 5.1068,0.287331 8.04326,0.861778 l -1.29267,7.516615 c -1.78742,-0.319114 -3.47905,-0.478702 -5.07491,-0.478765 -2.61728,6.3e-5 -4.4685,0.558622 -5.55368,1.675678 -1.08522,1.11718 -1.62782,3.207786 -1.6278,6.271826 l 0,4.691899 9.91044,0 0,6.702715 -9.91044,0 0,44.142159 z"
         style="fill:#000000;font-family:Sans;-inkscape-font-specification:Sans"
         id="path3042" />
      <path
         d="m 233.06674,74.56488 0,-9.910441 8.61778,0 0,9.910441 z m 0,60.27655 0,-50.844874 8.61778,0 0,50.844874 z"
         style="fill:#000000;font-family:Sans;-inkscape-font-specification:Sans"
         id="path3044" />
      <path
         d="m 288.029,116.21746 8.47414,1.10116 c -0.92566,5.84095 -3.29554,10.41315 -7.10966,13.71663 -3.8142,3.30348 -8.49812,4.95522 -14.05176,4.95522 -6.95808,0 -12.55165,-2.27414 -16.78073,-6.82241 -4.2291,-4.54826 -6.34364,-11.06744 -6.34364,-19.55756 0,-5.48981 0.90965,-10.293419 2.72896,-14.410836 1.8193,-4.117337 4.58816,-7.205371 8.30658,-9.264108 3.71839,-2.05864 7.76396,-3.087984 12.1367,-3.088036 5.52173,5.2e-5 10.03808,1.396449 13.54906,4.189196 3.5109,2.792843 5.7611,6.758611 6.75059,11.897318 l -8.37839,1.292666 c -0.79798,-3.415154 -2.21034,-5.984526 -4.23707,-7.708121 -2.02681,-1.723511 -4.47649,-2.585288 -7.34905,-2.585333 -4.34083,4.5e-5 -7.86773,1.556031 -10.58071,4.667962 -2.71302,3.112011 -4.06952,8.035312 -4.06951,14.769912 -10e-6,6.8304 1.30861,11.7936 3.92588,14.8896 2.61723,3.09602 6.03242,4.64403 10.24557,4.64402 3.38325,1e-5 6.20796,-1.03732 8.47415,-3.11197 2.26612,-2.07464 3.70241,-5.26641 4.30889,-9.57531 z"
         style="fill:#000000;font-family:Sans;-inkscape-font-specification:Sans"
         id="path3046" />
    </g>
    <g
       transform="scale(1.0540282,0.94874122)"
       style="font-size:94.34105682px;font-style:normal;font-variant:normal;font-weight:bold;font-stretch:normal;line-height:125%;letter-spacing:-1.68000138px;word-spacing:0px;fill:#4a4942;fill-opacity:1;stroke:none;font-family:Sans;-inkscape-font-specification:Sans Bold"
       id="text3070">
      <path
         d="m 359.38757,116.72724 12.99032,-1.9808 c 0.55277,2.51823 1.67368,4.42993 3.36275,5.73509 1.68902,1.30518 4.05369,1.95777 7.094,1.95776 3.34736,1e-5 5.86558,-0.61419 7.55466,-1.8426 1.13623,-0.85987 1.70436,-2.01149 1.7044,-3.45487 -4e-5,-0.9827 -0.30714,-1.79652 -0.9213,-2.44144 -0.64494,-0.61419 -2.08831,-1.18232 -4.33011,-1.70441 -10.44141,-2.30323 -17.0594,-4.40686 -19.854,-6.3109 -3.86946,-2.64103 -5.80419,-6.31087 -5.80419,-11.009525 0,-4.237938 1.67369,-7.800292 5.02109,-10.687073 3.34737,-2.88669 8.53735,-4.330057 15.56996,-4.330107 6.69474,5e-5 11.66975,1.090253 14.92505,3.270613 3.25521,2.180453 5.49704,5.404997 6.72548,9.673643 l -12.20722,2.257184 c -0.5221,-1.903982 -1.51249,-3.362705 -2.97119,-4.376172 -1.45875,-1.01339 -3.53935,-1.520104 -6.2418,-1.520144 -3.40883,4e-5 -5.85027,0.476044 -7.32433,1.428014 -0.98273,0.675658 -1.47409,1.550891 -1.47408,2.625703 -1e-5,0.921335 0.42993,1.704439 1.28982,2.349313 1.16696,0.859913 5.19764,2.072956 12.09206,3.639131 6.89435,1.56624 11.70813,3.48561 14.44136,5.75812 2.70243,2.30327 4.05367,5.51246 4.05372,9.62758 -5e-5,4.48367 -1.87335,8.33777 -5.61993,11.56231 -3.74665,3.22455 -9.2898,4.83682 -16.62945,4.83682 -6.66408,0 -11.93852,-1.35124 -15.82332,-4.05372 -3.88481,-2.70247 -6.42606,-6.37231 -7.62375,-11.00952 z"
         style="letter-spacing:-5.91000175px"
         id="path3049" />
      <path
         d="m 438.88202,115.11496 12.8982,2.16506 c -1.65839,4.72934 -4.27641,8.33008 -7.85408,10.80223 -3.57775,2.47215 -8.05373,3.70823 -13.42794,3.70823 -8.50668,0 -14.80222,-2.77925 -18.88664,-8.33776 -3.22455,-4.45293 -4.83682,-10.07285 -4.83682,-16.85978 0,-8.1074 2.11898,-14.456682 6.35697,-19.047862 4.23796,-4.591095 9.59685,-6.886663 16.07667,-6.886713 7.27823,5e-5 13.02099,2.403103 17.2283,7.209167 4.20722,4.80615 6.21872,12.168858 6.03451,22.088158 l -32.42974,0 c 0.0921,3.83876 1.13625,6.8253 3.13242,8.95963 1.99613,2.13435 4.48363,3.20153 7.46252,3.20152 2.02683,1e-5 3.73124,-0.55277 5.11322,-1.65834 1.38191,-1.10555 2.42605,-2.88673 3.13241,-5.34354 z m 0.73704,-13.08245 c -0.0922,-3.746585 -1.05953,-6.594932 -2.90209,-8.545051 -1.84263,-1.950045 -4.08446,-2.925086 -6.72548,-2.925126 -2.82535,4e-5 -5.1593,1.028824 -7.00188,3.086353 -1.84262,2.057604 -2.74856,4.852209 -2.71783,8.383824 z"
         style="letter-spacing:-7.71999979px"
         id="path3051" />
      <path
         d="m 467.7376,130.68492 -12.94425,0 0,-48.920996 12.02296,0 0,6.95581 c 2.05754,-3.285922 3.90782,-5.450974 5.55082,-6.49516 1.64296,-1.04409 3.50859,-1.566159 5.5969,-1.566209 2.94812,5e-5 5.78879,0.813863 8.52202,2.441443 l -4.00766,11.285918 c -2.18044,-1.412622 -4.20729,-2.118951 -6.08057,-2.118989 -1.81192,3.8e-5 -3.34741,0.499075 -4.6065,1.497111 -1.25913,0.998111 -2.24953,2.80232 -2.97119,5.412634 -0.7217,2.610378 -1.08254,8.076748 -1.08253,16.399128 z"
         style="letter-spacing:1.69000006px"
         id="path3053" />
      <path
         d="m 507.15482,130.68492 -19.71581,-48.920996 13.58917,0 9.21299,24.967216 2.67177,8.33776 c 0.7063,-2.11897 1.1516,-3.51628 1.33588,-4.19192 0.42992,-1.38192 0.89056,-2.76387 1.38195,-4.14584 l 9.30513,-24.967216 13.31277,0 -19.43941,48.920996 z"
         style="letter-spacing:-6.19999981px"
         id="path3055" />
      <path
         d="m 568.34787,115.11496 12.8982,2.16506 c -1.65839,4.72934 -4.27641,8.33008 -7.85408,10.80223 -3.57775,2.47215 -8.05373,3.70823 -13.42794,3.70823 -8.50668,0 -14.80222,-2.77925 -18.88664,-8.33776 -3.22455,-4.45293 -4.83682,-10.07285 -4.83682,-16.85978 0,-8.1074 2.11898,-14.456682 6.35697,-19.047862 4.23796,-4.591095 9.59685,-6.886663 16.07667,-6.886713 7.27823,5e-5 13.02099,2.403103 17.2283,7.209167 4.20722,4.80615 6.21872,12.168858 6.03451,22.088158 l -32.42974,0 c 0.0921,3.83876 1.13625,6.8253 3.13242,8.95963 1.99613,2.13435 4.48363,3.20153 7.46253,3.20152 2.02683,1e-5 3.73123,-0.55277 5.11321,-1.65834 1.38191,-1.10555 2.42605,-2.88673 3.13241,-5.34354 z m 0.73704,-13.08245 c -0.0922,-3.746585 -1.05952,-6.594932 -2.90209,-8.545051 -1.84263,-1.950045 -4.08445,-2.925086 -6.72548,-2.925126 -2.82535,4e-5 -5.1593,1.028824 -7.00188,3.086353 -1.84262,2.057604 -2.74856,4.852209 -2.71783,8.383824 z"
         style="letter-spacing:-7.00999975px"
         id="path3057" />
      <path
         d="m 597.91345,130.68492 -12.94425,0 0,-48.920996 12.02296,0 0,6.95581 c 2.05754,-3.285922 3.90782,-5.450974 5.55082,-6.49516 1.64296,-1.04409 3.50859,-1.566159 5.5969,-1.566209 2.94812,5e-5 5.78879,0.813863 8.52202,2.441443 l -4.00766,11.285918 c -2.18044,-1.412622 -4.20729,-2.118951 -6.08057,-2.118989 -1.81192,3.8e-5 -3.34741,0.499075 -4.6065,1.497111 -1.25913,0.998111 -2.24953,2.80232 -2.97119,5.412634 -0.7217,2.610378 -1.08254,8.076748 -1.08253,16.399128 z"
         style="letter-spacing:-7.00999975px"
         id="path3059" />
    </g>
    <g
       style="font-size:28px;font-style:normal;font-weight:normal;line-height:125%;letter-spacing:0px;word-spacing:0px;fill:#000000;fill-opacity:1;stroke:none;font-family:Sans"
       id="text4385">
      <path
         d="m 657.59698,84.058891 0,-17.677734 -6.60351,0 0,-2.365234 15.88672,0 0,2.365234 -6.63086,0 0,17.677734 z"
         style=""
         id="path3062" />
      <path
         d="m 671.55284,84.058891 0,-20.042968 3.99218,0 4.74415,14.191406 c 0.43748,1.321619 0.75649,2.31055 0.95703,2.966797 0.22785,-0.729163 0.58332,-1.800126 1.0664,-3.212891 l 4.79883,-13.945312 3.56836,0 0,20.042968 -2.55664,0 0,-16.77539 -5.82422,16.77539 -2.39258,0 -5.79687,-17.0625 0,17.0625 z"
         style=""
         id="path3064" />
    </g>
  </g>
</svg>
